<?xml version="1.0" encoding="utf-8"?>
<!-- Generator: Adobe Illustrator 23.0.3, SVG Export Plug-In . SVG Version: 6.00 Build 0)  -->
<svg version="1.1" id="Layer_1" xmlns="http://www.w3.org/2000/svg" xmlns:xlink="http://www.w3.org/1999/xlink" x="0px" y="0px"
	 viewBox="0 0 26.6 20.4" style="enable-background:new 0 0 26.6 20.4;" xml:space="preserve">
<style type="text/css">
	.st0{fill:#090909;}
</style>
<g>
	<g>
		<path class="st0" d="M37.8,92.8c-4.7,0-8.6-4.6-12.8-6c-4.4-1.4-10.3,0-13.9-2.7C7.4,81.4,7,75.4,4.3,71.7
			C1.6,68.1-4,65.8-5.4,61.4c-1.4-4.2,1.8-9.4,1.8-14c0-4.7-3.2-9.8-1.8-14c1.4-4.4,7-6.7,9.7-10.3c2.7-3.7,3.1-9.7,6.8-12.4
			C14.7,8,20.6,9.5,25,8c4.2-1.4,8.1-6,12.8-6s8.6,4.6,12.8,6c4.4,1.4,10.3,0,13.9,2.7c3.7,2.7,4.1,8.7,6.8,12.4
			C74,26.7,79.6,29,81,33.4c1.4,4.2-1.8,9.4-1.8,14c0,4.7,3.2,9.8,1.8,14c-1.4,4.4-7,6.7-9.7,10.3c-2.7,3.7-3.1,9.7-6.8,12.4
			c-3.6,2.7-9.5,1.2-13.9,2.7C46.4,88.2,42.5,92.8,37.8,92.8z"/>
	</g>
</g>
</svg>
