<?xml version="1.0" encoding="utf-8"?>
<!-- Generator: Adobe Illustrator 23.0.3, SVG Export Plug-In . SVG Version: 6.00 Build 0)  -->
<svg version="1.1" id="Layer_1" xmlns="http://www.w3.org/2000/svg" xmlns:xlink="http://www.w3.org/1999/xlink" x="0px" y="0px"
	 viewBox="0 0 100 100" style="enable-background:new 0 0 100 100;" xml:space="preserve">
<g>
	<path d="M50,95.4c-4.7,0-8.6-4.6-12.8-6c-4.4-1.4-10.3,0-13.9-2.7c-3.7-2.7-4.1-8.7-6.8-12.4c-2.7-3.6-8.3-5.9-9.7-10.3
		c-1.4-4.2,1.8-9.4,1.8-14c0-4.7-3.2-9.8-1.8-14c1.4-4.4,7-6.7,9.7-10.3c2.7-3.7,3.1-9.7,6.8-12.4c3.6-2.7,9.5-1.2,13.9-2.7
		c4.2-1.4,8.1-6,12.8-6c4.7,0,8.6,4.6,12.8,6c4.4,1.4,10.3,0,13.9,2.7c3.7,2.7,4.1,8.7,6.8,12.4c2.7,3.6,8.3,5.9,9.7,10.3
		c1.4,4.2-1.8,9.4-1.8,14c0,4.7,3.2,9.8,1.8,14c-1.4,4.4-7,6.7-9.7,10.3c-2.7,3.7-3.1,9.7-6.8,12.4c-3.6,2.7-9.5,1.2-13.9,2.7
		C58.6,90.8,54.7,95.4,50,95.4z"/>
</g>
</svg>
