<?xml version="1.0" encoding="utf-8"?>
<!-- Generator: Adobe Illustrator 23.0.3, SVG Export Plug-In . SVG Version: 6.00 Build 0)  -->
<svg version="1.1" id="Layer_1" xmlns="http://www.w3.org/2000/svg" xmlns:xlink="http://www.w3.org/1999/xlink" x="0px" y="0px"
	 viewBox="0 0 26.6 20.4" style="enable-background:new 0 0 26.6 20.4;" xml:space="preserve">
<g>
	<path d="M35.8,90.8c-4.7,0-8.6-4.6-12.8-6c-4.4-1.4-10.3,0-13.9-2.7C5.4,79.4,5,73.4,2.3,69.7c-2.7-3.6-8.3-5.9-9.7-10.3
		c-1.4-4.2,1.8-9.4,1.8-14c0-4.7-3.2-9.8-1.8-14c1.4-4.4,7-6.7,9.7-10.3C5,17.4,5.4,11.4,9.1,8.7C12.7,6,18.6,7.5,23,6
		c4.2-1.4,8.1-6,12.8-6s8.6,4.6,12.8,6C53,7.4,58.9,6,62.5,8.7c3.7,2.7,4.1,8.7,6.8,12.4C72,24.7,77.6,27,79,31.4
		c1.4,4.2-1.8,9.4-1.8,14c0,4.7,3.2,9.8,1.8,14c-1.4,4.4-7,6.7-9.7,10.3c-2.7,3.7-3.1,9.7-6.8,12.4c-3.6,2.7-9.5,1.2-13.9,2.7
		C44.4,86.2,40.5,90.8,35.8,90.8z"/>
</g>
</svg>
