<?xml version="1.0" encoding="utf-8"?>
<!-- Generator: Adobe Illustrator 23.0.3, SVG Export Plug-In . SVG Version: 6.00 Build 0)  -->
<svg version="1.1" id="Camada_1" xmlns="http://www.w3.org/2000/svg" xmlns:xlink="http://www.w3.org/1999/xlink" x="0px" y="0px"
	 viewBox="0 0 1636.1 356.6" style="enable-background:new 0 0 1636.1 356.6;" xml:space="preserve">
<style type="text/css">
	.st0{fill:url(#SVGID_1_);}
	.st1{fill:#010101;}
	.st2{fill:url(#SVGID_2_);}
	.st3{fill:url(#SVGID_3_);}
	.st4{fill:url(#SVGID_4_);}
	.st5{fill:#9CCB3D;}
	.st6{fill:url(#SVGID_5_);}
	.st7{fill:url(#SVGID_6_);}
	.st8{fill:url(#SVGID_7_);}
	.st9{fill:url(#SVGID_8_);}
	.st10{fill:#0E92CC;}
	.st11{fill:url(#SVGID_9_);}
	.st12{fill:url(#SVGID_10_);}
	.st13{fill:url(#SVGID_11_);}
	.st14{fill:url(#SVGID_12_);}
	.st15{fill:url(#SVGID_13_);}
	.st16{fill:#0657A3;}
</style>
<linearGradient id="SVGID_1_" gradientUnits="userSpaceOnUse" x1="31.4213" y1="177.8251" x2="118.0852" y2="177.8251">
	<stop  offset="0" style="stop-color:#CBDF84"/>
	<stop  offset="1" style="stop-color:#AAD037"/>
</linearGradient>
<path class="st0" d="M118.1,217c-4.9,2-10.3,3.1-16.8,3.1c-23,0-39-19.2-39-42.2v-0.4c0-23,16.3-41.8,39-41.8
	c6.1,0,11.6,1.2,16.8,3.4v-29.2c-5-0.9-10.5-1.4-16.6-1.4c-41.3,0-70.1,31.3-70.1,69.5v0.4c0,38.6,29.4,69.1,68.9,69.1
	c6.5,0,12.4-0.6,17.8-1.7V217z"/>
<path class="st1" d="M164.7,167"/>
<linearGradient id="SVGID_2_" gradientUnits="userSpaceOnUse" x1="153.2968" y1="229.7823" x2="153.2968" y2="125.868">
	<stop  offset="0" style="stop-color:#AAD037"/>
	<stop  offset="1" style="stop-color:#9CCB3D"/>
</linearGradient>
<polygon class="st2" points="164.7,188.1 164.7,229.8 141.9,229.8 141.9,125.9 164.7,125.9 164.7,167 "/>
<linearGradient id="SVGID_3_" gradientUnits="userSpaceOnUse" x1="218.3173" y1="229.7823" x2="218.3173" y2="125.868">
	<stop  offset="0" style="stop-color:#AAD037"/>
	<stop  offset="1" style="stop-color:#9CCB3D"/>
</linearGradient>
<polygon class="st3" points="206.9,167 206.9,125.9 229.7,125.9 229.7,229.8 206.9,229.8 206.9,188.1 "/>
<linearGradient id="SVGID_4_" gradientUnits="userSpaceOnUse" x1="51.9075" y1="211.6" x2="51.9075" y2="146.6409">
	<stop  offset="0" style="stop-color:#CBDF84;stop-opacity:0"/>
	<stop  offset="1" style="stop-color:#84AB3F"/>
</linearGradient>
<path class="st4" d="M63.9,190.3c-1.1-3.9-1.6-8.1-1.6-12.4v-0.4c0-11,3.7-21,10.1-28.5c-0.5-1.4-0.9-2.2-0.9-2.2
	c-14.8-3-27.6,2.6-37.5,11.7c-1.7,6.2-2.6,12.7-2.6,19.4v0.4c0,11.9,2.8,23,7.8,32.7C50.7,204.1,58.6,197.1,63.9,190.3z"/>
<path class="st5" d="M31.4,177.8v0.4c0,11.9,2.8,23,7.8,32.7c12-33.9,24.1-52,32.8-61.5c2.5-3,5.4-5.6,8.6-7.8
	c2.8-1.9,4.4-2.4,4.4-2.4l0,0c4.9-2.3,10.4-3.6,16.3-3.6c6.1,0,11.6,1.2,16.8,3.4v-29.2c-5-0.9-10.5-1.4-16.6-1.4
	C60.2,108.3,31.4,139.6,31.4,177.8z"/>
<g>
	
		<linearGradient id="SVGID_5_" gradientUnits="userSpaceOnUse" x1="148.3121" y1="-392.4242" x2="234.9761" y2="-392.4242" gradientTransform="matrix(-1 0 0 -1 488.505 -214.5991)">
		<stop  offset="0" style="stop-color:#CBDF84"/>
		<stop  offset="1" style="stop-color:#AAD037"/>
	</linearGradient>
	<path class="st6" d="M253.5,138.7c4.9-2,10.3-3.1,16.8-3.1c23,0,39,19.2,39,42.2v0.4c0,23-16.3,41.8-39,41.8
		c-6.1,0-11.6-1.2-16.8-3.4v29.2c5,0.9,10.5,1.4,16.6,1.4c41.3,0,70.1-31.3,70.1-69.5v-0.4c0-38.6-29.4-69.1-68.9-69.1
		c-6.5,0-12.4,0.6-17.8,1.7V138.7z"/>
	
		<linearGradient id="SVGID_6_" gradientUnits="userSpaceOnUse" x1="168.7984" y1="-352.766" x2="168.7984" y2="-417.7251" gradientTransform="matrix(-1 0 0 -1 488.505 -214.5991)">
		<stop  offset="0" style="stop-color:#CBDF84;stop-opacity:0"/>
		<stop  offset="1" style="stop-color:#84AB3F"/>
	</linearGradient>
	<path class="st7" d="M307.7,165.4c1.1,3.9,1.6,8.1,1.6,12.4v0.4c0,11-3.7,21-10.1,28.5c0.5,1.4,0.9,2.2,0.9,2.2
		c14.8,3,27.6-2.6,37.5-11.7c1.7-6.2,2.6-12.7,2.6-19.4v-0.4c0-11.9-2.8-23-7.8-32.7C320.9,151.5,313,158.6,307.7,165.4z"/>
	<path class="st5" d="M340.2,177.8v-0.4c0-11.9-2.8-23-7.8-32.7c-12,33.9-24.1,52-32.8,61.5c-2.5,3-5.4,5.6-8.6,7.8
		c-2.8,1.9-4.4,2.4-4.4,2.4l0,0c-4.9,2.3-10.4,3.6-16.3,3.6c-6.1,0-11.6-1.2-16.8-3.4v29.2c5,0.9,10.5,1.4,16.6,1.4
		C311.4,247.3,340.2,216,340.2,177.8z"/>
</g>
<g>
	<linearGradient id="SVGID_7_" gradientUnits="userSpaceOnUse" x1="116.3101" y1="66.7579" x2="255.2771" y2="66.7579">
		<stop  offset="0" style="stop-color:#8CCCE6"/>
		<stop  offset="1" style="stop-color:#36A6D6"/>
	</linearGradient>
	<path class="st8" d="M146.7,110.1c-2-4.9-3.1-10.3-3.1-16.8c0-23,19.2-39,42.2-39h0.4c23,0,41.8,16.3,41.8,39
		c0,6.1-1.2,11.6-3.4,16.8h29.2c0.9-5,1.4-10.5,1.4-16.6c0-41.3-31.3-70.1-69.5-70.1h-0.4c-38.6,0-69.1,29.4-69.1,68.9
		c0,6.5,0.6,12.4,1.7,17.8H146.7z"/>
	<linearGradient id="SVGID_8_" gradientUnits="userSpaceOnUse" x1="156.5361" y1="43.9122" x2="221.4953" y2="43.9122">
		<stop  offset="0" style="stop-color:#36A6D6;stop-opacity:0"/>
		<stop  offset="1" style="stop-color:#0657A3"/>
	</linearGradient>
	<path class="st9" d="M173.4,55.9c3.9-1.1,8.1-1.6,12.4-1.6h0.4c11,0,21,3.7,28.5,10.1c1.4-0.5,2.2-0.9,2.2-0.9
		c3-14.8-2.6-27.6-11.7-37.5c-6.2-1.7-12.7-2.6-19.4-2.6h-0.4c-11.9,0-23,2.8-32.7,7.8C159.5,42.7,166.5,50.6,173.4,55.9z"/>
	<path class="st10" d="M185.8,23.4h-0.4c-11.9,0-23,2.8-32.7,7.8c33.9,12,52,24.1,61.5,32.8c3,2.5,5.6,5.4,7.8,8.6
		c1.9,2.8,2.4,4.4,2.4,4.4l0,0c2.3,4.9,3.6,10.4,3.6,16.3c0,6.1-1.2,11.6-3.4,16.8h29.2c0.9-5,1.4-10.5,1.4-16.6
		C255.3,52.2,224,23.4,185.8,23.4z"/>
</g>
<g>
	
		<linearGradient id="SVGID_9_" gradientUnits="userSpaceOnUse" x1="110.6546" y1="-165.7584" x2="197.3186" y2="-165.7584" gradientTransform="matrix(0 -1 1 0 351.552 442.7529)">
		<stop  offset="0" style="stop-color:#8CCCE6"/>
		<stop  offset="1" style="stop-color:#36A6D6"/>
	</linearGradient>
	<path class="st11" d="M224.9,245.4c2,4.9,3.1,10.3,3.1,16.8c0,23-19.2,39-42.2,39h-0.4c-23,0-41.8-16.3-41.8-39
		c0-6.1,1.2-11.6,3.4-16.8h-29.2c-0.9,5-1.4,10.5-1.4,16.6c0,41.3,31.3,70.1,69.5,70.1h0.4c38.6,0,69.1-29.4,69.1-68.9
		c0-6.5-0.6-12.4-1.7-17.8H224.9z"/>
	<linearGradient id="SVGID_10_" gradientUnits="userSpaceOnUse" x1="153.874" y1="311.612" x2="211.003" y2="311.612">
		<stop  offset="0" style="stop-color:#0657A3"/>
		<stop  offset="1" style="stop-color:#36A6D6;stop-opacity:0"/>
	</linearGradient>
	<path class="st12" d="M198.2,299.6c-3.9,1.1-8.1,1.6-12.4,1.6h-0.4c-11,0-21-3.7-28.5-10.1c-1.4,0.5-2.2,0.9-2.2,0.9
		c-3,14.8,2.6,27.6,11.7,37.5c6.2,1.7,12.7,2.6,19.4,2.6h0.4c11.9,0,23-2.8,32.7-7.8C212.1,312.8,205,305,198.2,299.6z"/>
	<path class="st10" d="M185.8,332.1h0.4c11.9,0,23-2.8,32.7-7.8c-33.9-12-52-24.1-61.5-32.8c-3-2.5-5.6-5.4-7.8-8.6
		c-1.9-2.8-2.4-4.4-2.4-4.4l0,0c-2.3-4.9-3.6-10.4-3.6-16.3c0-6.1,1.2-11.6,3.4-16.8h-29.2c-0.9,5-1.4,10.5-1.4,16.6
		C116.3,303.3,147.6,332.1,185.8,332.1z"/>
</g>
<linearGradient id="SVGID_11_" gradientUnits="userSpaceOnUse" x1="162.4238" y1="197.4997" x2="151.6686" y2="183.9661">
	<stop  offset="0" style="stop-color:#CBDF84;stop-opacity:0"/>
	<stop  offset="0.1378" style="stop-color:#BDD576;stop-opacity:0.1378"/>
	<stop  offset="0.4915" style="stop-color:#9EBE58;stop-opacity:0.4915"/>
	<stop  offset="0.7915" style="stop-color:#8BB046;stop-opacity:0.7915"/>
	<stop  offset="1" style="stop-color:#84AB3F"/>
</linearGradient>
<polygon class="st13" points="141.9,196 164.7,196 164.7,176 "/>
<linearGradient id="SVGID_12_" gradientUnits="userSpaceOnUse" x1="211.4682" y1="196.4145" x2="220.56" y2="184.1698">
	<stop  offset="0" style="stop-color:#CBDF84;stop-opacity:0"/>
	<stop  offset="0.1378" style="stop-color:#BDD576;stop-opacity:0.1378"/>
	<stop  offset="0.4915" style="stop-color:#9EBE58;stop-opacity:0.4915"/>
	<stop  offset="0.7915" style="stop-color:#8BB046;stop-opacity:0.7915"/>
	<stop  offset="1" style="stop-color:#84AB3F"/>
</linearGradient>
<polygon class="st14" points="229.7,196 206.9,196 206.9,178.4 "/>
<linearGradient id="SVGID_13_" gradientUnits="userSpaceOnUse" x1="141.8662" y1="176.8771" x2="229.7479" y2="176.8771">
	<stop  offset="0" style="stop-color:#0657A3"/>
	<stop  offset="0.5" style="stop-color:#0E92CC"/>
	<stop  offset="1" style="stop-color:#0657A3"/>
</linearGradient>
<path class="st15" d="M141.9,172c0,0,22.9-14.3,43.9-14.3c21.1,0,43.9,14.3,43.9,14.3v24c0,0-20.2-17.3-43.9-17.3
	c-23.8,0-43.9,17.3-43.9,17.3V172z"/>
<g>
	<path class="st16" d="M401.6,210.9c4.9,2.5,12.5,5.1,20.3,5.1c8.4,0,12.9-3.5,12.9-8.8c0-5.1-3.8-7.9-13.6-11.4
		c-13.5-4.7-22.3-12.1-22.3-23.9c0-13.8,11.5-24.4,30.7-24.4c9.1,0,15.9,1.9,20.7,4.1l-4.1,14.8c-3.2-1.6-9-3.8-17-3.8
		s-11.8,3.6-11.8,7.8c0,5.2,4.6,7.5,15,11.4c14.3,5.3,21,12.7,21,24.2c0,13.6-10.5,25.1-32.7,25.1c-9.3,0-18.4-2.4-23-4.9
		L401.6,210.9z"/>
	<path class="st16" d="M485.2,154.1V171h13.1v13.5h-13.1v21.3c0,7.1,1.7,10.3,7.2,10.3c2.3,0,4.1-0.2,5.4-0.5l0.1,13.8
		c-2.4,1-6.7,1.6-11.9,1.6c-5.9,0-10.8-2-13.7-5.1c-3.4-3.5-5.1-9.1-5.1-17.4v-24.1h-7.8V171h7.8v-12.7L485.2,154.1z"/>
	<path class="st16" d="M506.6,220c0-6.5,4.5-11.2,10.8-11.2c6.4,0,10.7,4.6,10.7,11.2c0,6.4-4.3,11.1-10.8,11.1
		C511,231.1,506.6,226.4,506.6,220z"/>
	<path class="st16" d="M564.1,149.8c5.7-1,13.6-1.7,24.8-1.7c11.3,0,19.4,2.2,24.8,6.5c5.2,4.1,8.7,10.8,8.7,18.8
		c0,7.9-2.6,14.7-7.5,19.2c-6.3,5.9-15.5,8.5-26.3,8.5c-2.4,0-4.6-0.1-6.3-0.4v29h-18.2V149.8z M582.2,186.6
		c1.6,0.4,3.5,0.5,6.1,0.5c9.7,0,15.8-4.9,15.8-13.2c0-7.5-5.2-11.9-14.3-11.9c-3.7,0-6.3,0.4-7.6,0.7V186.6z"/>
	<path class="st16" d="M664.6,229.8l-1.1-5.9h-0.4c-3.8,4.7-9.9,7.2-16.8,7.2c-11.9,0-19-8.7-19-18c0-15.3,13.7-22.6,34.5-22.5v-0.8
		c0-3.1-1.7-7.6-10.7-7.6c-6,0-12.4,2-16.2,4.5l-3.4-11.8c4.1-2.3,12.1-5.2,22.9-5.2c19.6,0,25.9,11.5,25.9,25.4v20.4
		c0,5.7,0.2,11.1,0.8,14.3H664.6z M662.5,202c-9.6-0.1-17.1,2.2-17.1,9.3c0,4.7,3.1,7,7.2,7c4.6,0,8.3-3,9.5-6.7
		c0.2-1,0.4-2,0.4-3.1V202z"/>
	<path class="st16" d="M738.8,228.3c-3.2,1.4-9.4,2.6-16.4,2.6c-19,0-31.2-11.5-31.2-30.1c0-17.2,11.8-31.3,33.7-31.3
		c4.8,0,10.1,0.8,14,2.3l-2.9,13.6c-2.2-1-5.4-1.8-10.2-1.8c-9.6,0-15.9,6.9-15.8,16.5c0,10.8,7.2,16.5,16.1,16.5
		c4.3,0,7.7-0.7,10.5-1.8L738.8,228.3z"/>
	<path class="st16" d="M748.9,144.4h18.3v33.6h0.2c1.9-2.5,4.3-4.5,7.2-6c2.6-1.4,6.1-2.3,9.5-2.3c11.7,0,20.6,8.1,20.6,25.7v34.4
		h-18.3v-32.4c0-7.7-2.6-13-9.5-13c-4.8,0-7.8,3.1-9.1,6.4c-0.5,1.2-0.6,2.8-0.6,4.1v34.9h-18.3V144.4z"/>
	<path class="st16" d="M877.5,199.7c0,21.5-15.3,31.4-31,31.4c-17.2,0-30.4-11.3-30.4-30.3c0-19,12.5-31.1,31.4-31.1
		C865.5,169.6,877.5,182,877.5,199.7z M834.9,200.3c0,10.1,4.2,17.7,12,17.7c7.1,0,11.7-7.1,11.7-17.7c0-8.8-3.4-17.7-11.7-17.7
		C838.2,182.6,834.9,191.7,834.9,200.3z"/>
	<path class="st16" d="M888.8,189.7c0-7.3-0.2-13.6-0.5-18.8h15.4l0.8,7.9h0.4c2.5-3.7,7.7-9.3,17.8-9.3c7.6,0,13.6,3.8,16.1,10h0.2
		c2.2-3,4.8-5.4,7.6-7.1c3.2-1.9,6.9-2.9,11.2-2.9c11.3,0,19.8,7.9,19.8,25.5v34.6h-17.8v-32c0-8.5-2.8-13.5-8.7-13.5
		c-4.2,0-7.2,2.9-8.4,6.4c-0.5,1.3-0.7,3.2-0.7,4.7v34.4h-17.8v-33c0-7.5-2.6-12.5-8.4-12.5c-4.7,0-7.5,3.6-8.5,6.6
		c-0.6,1.4-0.7,3.1-0.7,4.6v34.3h-17.8V189.7z"/>
	<path class="st16" d="M1011.1,154.6c0,5.1-3.8,9.1-9.9,9.1c-5.8,0-9.6-4.1-9.5-9.1c-0.1-5.3,3.7-9.3,9.6-9.3
		C1007.3,145.4,1011,149.3,1011.1,154.6z M992.2,229.8V171h18.3v58.8H992.2z"/>
	<path class="st16" d="M1080.6,210.9c0,7.7,0.2,14,0.5,18.9h-15.9l-0.8-8.3h-0.4c-2.3,3.6-7.8,9.6-18.4,9.6
		c-11.9,0-20.7-7.5-20.7-25.6V171h18.4v31.6c0,8.5,2.8,13.7,9.1,13.7c5.1,0,7.9-3.5,9.1-6.4c0.5-1.1,0.6-2.5,0.6-4v-35h18.4V210.9z"
		/>
	<path class="st16" d="M1095.2,213.8c3.4,2,10.3,4.5,15.8,4.5c5.5,0,7.8-1.9,7.8-4.9s-1.8-4.5-8.7-6.7
		c-12.1-4.1-16.8-10.7-16.7-17.7c0-10.9,9.4-19.2,23.9-19.2c6.9,0,13,1.6,16.6,3.4l-3.2,12.6c-2.6-1.4-7.7-3.4-12.7-3.4
		c-4.5,0-7,1.8-7,4.8c0,2.8,2.3,4.2,9.5,6.7c11.2,3.8,15.9,9.5,16,18.2c0,10.9-8.7,19-25.5,19c-7.7,0-14.6-1.7-19-4.1L1095.2,213.8z
		"/>
	<path class="st16" d="M1190.8,148.7v31.1h30.2v-31.1h18.3v81.1H1221v-33.9h-30.2v33.9h-18.4v-81.1H1190.8z"/>
	<path class="st16" d="M1312.4,199.7c0,21.5-15.3,31.4-31,31.4c-17.2,0-30.4-11.3-30.4-30.3c0-19,12.5-31.1,31.4-31.1
		C1300.4,169.6,1312.4,182,1312.4,199.7z M1269.8,200.3c0,10.1,4.2,17.7,12,17.7c7.1,0,11.7-7.1,11.7-17.7c0-8.8-3.4-17.7-11.7-17.7
		C1273.1,182.6,1269.8,191.7,1269.8,200.3z"/>
	<path class="st16" d="M1323.6,213.8c3.4,2,10.3,4.5,15.8,4.5c5.5,0,7.8-1.9,7.8-4.9s-1.8-4.5-8.7-6.7
		c-12.1-4.1-16.8-10.7-16.7-17.7c0-10.9,9.4-19.2,23.9-19.2c6.9,0,13,1.6,16.6,3.4l-3.2,12.6c-2.6-1.4-7.7-3.4-12.7-3.4
		c-4.5,0-7,1.8-7,4.8c0,2.8,2.3,4.2,9.5,6.7c11.2,3.8,15.9,9.5,16,18.2c0,10.9-8.7,19-25.5,19c-7.7,0-14.6-1.7-19-4.1L1323.6,213.8z
		"/>
	<path class="st16" d="M1375.9,190.7c0-7.7-0.2-14.3-0.5-19.7h15.9l0.8,8.2h0.2c4.3-6.3,11.1-9.5,19.6-9.5
		c12.9,0,24.4,11.2,24.4,29.9c0,21.4-13.6,31.5-26.7,31.5c-7.1,0-12.6-2.9-15.3-6.7h-0.2v29.2h-18.3V190.7z M1394.2,204.5
		c0,1.4,0.1,2.8,0.4,3.8c1.2,4.9,5.4,8.7,10.7,8.7c7.9,0,12.6-6.6,12.6-16.6c0-9.4-4.2-16.5-12.4-16.5c-5.2,0-9.7,3.8-10.9,9.3
		c-0.2,1-0.4,2.2-0.4,3.2V204.5z"/>
	<path class="st16" d="M1466.7,154.6c0,5.1-3.8,9.1-9.9,9.1c-5.8,0-9.6-4.1-9.5-9.1c-0.1-5.3,3.7-9.3,9.6-9.3
		C1462.9,145.4,1466.6,149.3,1466.7,154.6z M1447.8,229.8V171h18.3v58.8H1447.8z"/>
	<path class="st16" d="M1501.2,154.1V171h13.1v13.5h-13.1v21.3c0,7.1,1.7,10.3,7.2,10.3c2.3,0,4.1-0.2,5.4-0.5l0.1,13.8
		c-2.4,1-6.7,1.6-11.9,1.6c-5.9,0-10.8-2-13.7-5.1c-3.4-3.5-5.1-9.1-5.1-17.4v-24.1h-7.8V171h7.8v-12.7L1501.2,154.1z"/>
	<path class="st16" d="M1558.4,229.8l-1.1-5.9h-0.4c-3.8,4.7-9.9,7.2-16.8,7.2c-11.9,0-19-8.7-19-18c0-15.3,13.7-22.6,34.5-22.5
		v-0.8c0-3.1-1.7-7.6-10.7-7.6c-6,0-12.4,2-16.2,4.5l-3.4-11.8c4.1-2.3,12.1-5.2,22.9-5.2c19.6,0,25.9,11.5,25.9,25.4v20.4
		c0,5.7,0.2,11.1,0.8,14.3H1558.4z M1556.2,202c-9.6-0.1-17.1,2.2-17.1,9.3c0,4.7,3.1,7,7.2,7c4.6,0,8.3-3,9.5-6.7
		c0.2-1,0.4-2,0.4-3.1V202z"/>
	<path class="st16" d="M1588.4,144.4h18.3v85.4h-18.3V144.4z"/>
</g>
<g>
	<path class="st5" d="M482.5,291.1v-34.5H494c2.7,0,5.1,0.5,7.2,1.4c2.1,0.9,3.8,2.1,5.1,3.7c1.4,1.6,2.4,3.4,3.1,5.5
		c0.7,2.1,1,4.3,1,6.7c0,2.6-0.4,5-1.1,7.1c-0.8,2.1-1.9,3.9-3.3,5.4c-1.4,1.5-3.2,2.7-5.2,3.5s-4.3,1.2-6.8,1.2H482.5z
		 M507.9,273.8c0-2.2-0.3-4.2-0.9-6c-0.6-1.8-1.5-3.4-2.7-4.7c-1.2-1.3-2.6-2.4-4.4-3.1c-1.7-0.7-3.7-1.1-5.9-1.1h-9v30.1h9
		c2.3,0,4.3-0.4,6-1.1c1.7-0.8,3.2-1.8,4.4-3.2c1.2-1.4,2.1-3,2.7-4.8S507.9,276,507.9,273.8z"/>
	<path class="st5" d="M529,291.6c-1.8,0-3.4-0.3-4.9-1c-1.5-0.7-2.8-1.6-3.9-2.8c-1.1-1.2-2-2.6-2.6-4.2c-0.6-1.6-0.9-3.3-0.9-5
		c0-1.8,0.3-3.5,0.9-5.1c0.6-1.6,1.5-3,2.6-4.2c1.1-1.2,2.4-2.1,3.9-2.8c1.5-0.7,3.1-1,4.9-1s3.4,0.3,4.9,1c1.5,0.7,2.8,1.6,3.9,2.8
		c1.1,1.2,2,2.6,2.6,4.2c0.6,1.6,0.9,3.3,0.9,5.1c0,1.8-0.3,3.4-0.9,5c-0.6,1.6-1.5,3-2.6,4.2c-1.1,1.2-2.4,2.1-3.9,2.8
		C532.4,291.3,530.7,291.6,529,291.6z M519.1,278.6c0,1.5,0.3,2.9,0.8,4.2c0.5,1.3,1.2,2.5,2.1,3.4c0.9,1,1.9,1.7,3.1,2.3
		c1.2,0.6,2.5,0.9,3.8,0.9c1.4,0,2.6-0.3,3.8-0.9c1.2-0.6,2.3-1.4,3.2-2.4c0.9-1,1.6-2.2,2.1-3.5c0.5-1.3,0.8-2.7,0.8-4.3
		c0-1.5-0.3-2.9-0.8-4.2c-0.5-1.3-1.2-2.5-2.1-3.5c-0.9-1-2-1.8-3.1-2.4c-1.2-0.6-2.5-0.9-3.8-0.9c-1.4,0-2.6,0.3-3.8,0.9
		c-1.2,0.6-2.2,1.4-3.1,2.4c-0.9,1-1.6,2.2-2.1,3.5C519.3,275.7,519.1,277.1,519.1,278.6z"/>
	<path class="st5" d="M547.4,278.4c0-1.8,0.3-3.5,0.9-5.1c0.6-1.6,1.5-3,2.6-4.1c1.1-1.2,2.4-2.1,3.9-2.8c1.5-0.7,3.2-1,5-1
		c2.3,0,4.3,0.5,6.1,1.6c1.8,1,3.1,2.5,3.9,4.3l-2.4,0.8c-0.7-1.4-1.8-2.5-3.2-3.3c-1.4-0.8-2.9-1.2-4.5-1.2c-1.4,0-2.7,0.3-3.9,0.8
		c-1.2,0.6-2.2,1.3-3.1,2.3s-1.6,2.1-2.1,3.4c-0.5,1.3-0.8,2.7-0.8,4.3c0,1.5,0.3,3,0.8,4.3s1.2,2.5,2.1,3.5s1.9,1.8,3.2,2.4
		c1.2,0.6,2.5,0.9,3.9,0.9c0.9,0,1.7-0.1,2.6-0.4c0.9-0.3,1.7-0.6,2.4-1c0.7-0.4,1.4-0.9,1.9-1.5c0.5-0.6,0.9-1.2,1.1-1.8l2.4,0.7
		c-0.3,0.9-0.8,1.7-1.5,2.5c-0.7,0.8-1.5,1.4-2.4,2c-0.9,0.6-1.9,1-3,1.3c-1.1,0.3-2.2,0.5-3.4,0.5c-1.8,0-3.4-0.3-5-1
		c-1.5-0.7-2.8-1.7-4-2.9c-1.1-1.2-2-2.6-2.6-4.2S547.4,280.2,547.4,278.4z"/>
	<path class="st5" d="M588.8,289.9c-0.1,0.1-0.3,0.2-0.7,0.4c-0.3,0.2-0.7,0.3-1.2,0.5c-0.5,0.2-1,0.3-1.6,0.4
		c-0.6,0.1-1.2,0.2-1.9,0.2c-0.7,0-1.3-0.1-1.9-0.3s-1.1-0.5-1.6-0.9c-0.5-0.4-0.8-0.9-1.1-1.4c-0.3-0.6-0.4-1.2-0.4-1.9v-19.1H575
		v-2h3.6v-8.7h2.4v8.7h5.9v2H581v18.5c0,0.9,0.3,1.6,1,2.1c0.6,0.5,1.4,0.7,2.2,0.7c1,0,1.9-0.2,2.6-0.5s1.2-0.6,1.3-0.7
		L588.8,289.9z"/>
	<path class="st5" d="M605,291.6c-1.8,0-3.4-0.3-4.9-1c-1.5-0.7-2.8-1.6-3.9-2.8c-1.1-1.2-2-2.6-2.6-4.2c-0.6-1.6-0.9-3.3-0.9-5
		c0-1.8,0.3-3.5,0.9-5.1c0.6-1.6,1.5-3,2.6-4.2c1.1-1.2,2.4-2.1,3.9-2.8c1.5-0.7,3.1-1,4.9-1s3.4,0.3,4.9,1c1.5,0.7,2.8,1.6,3.9,2.8
		c1.1,1.2,2,2.6,2.6,4.2c0.6,1.6,0.9,3.3,0.9,5.1c0,1.8-0.3,3.4-0.9,5c-0.6,1.6-1.5,3-2.6,4.2c-1.1,1.2-2.4,2.1-3.9,2.8
		C608.4,291.3,606.8,291.6,605,291.6z M595.1,278.6c0,1.5,0.3,2.9,0.8,4.2c0.5,1.3,1.2,2.5,2.1,3.4c0.9,1,1.9,1.7,3.1,2.3
		c1.2,0.6,2.5,0.9,3.8,0.9c1.4,0,2.6-0.3,3.8-0.9c1.2-0.6,2.3-1.4,3.2-2.4c0.9-1,1.6-2.2,2.1-3.5c0.5-1.3,0.8-2.7,0.8-4.3
		c0-1.5-0.3-2.9-0.8-4.2c-0.5-1.3-1.2-2.5-2.1-3.5c-0.9-1-2-1.8-3.1-2.4c-1.2-0.6-2.5-0.9-3.8-0.9c-1.4,0-2.6,0.3-3.8,0.9
		c-1.2,0.6-2.2,1.4-3.1,2.4c-0.9,1-1.6,2.2-2.1,3.5C595.4,275.7,595.1,277.1,595.1,278.6z"/>
	<path class="st5" d="M637.1,268c-2.3,0.1-4.3,0.7-6,2c-1.7,1.3-2.9,3-3.6,5.3v15.8h-2.4v-25.3h2.3v6.2c0.9-1.8,2-3.2,3.5-4.4
		c1.4-1.1,3-1.8,4.6-1.9c0.3,0,0.6,0,0.9,0s0.5,0,0.6,0V268z"/>
	<path class="st5" d="M651.7,291.6c-1.9,0-3.8-0.3-5.6-1s-3.3-1.6-4.7-2.9l1.2-1.7c1.4,1.2,2.8,2.1,4.2,2.7c1.5,0.6,3.1,0.9,4.8,0.9
		c2.2,0,4-0.5,5.3-1.4c1.3-0.9,2-2.2,2-3.9c0-0.8-0.2-1.4-0.5-2s-0.9-1-1.5-1.4c-0.7-0.4-1.5-0.7-2.5-1c-1-0.3-2.2-0.6-3.5-0.9
		c-1.4-0.3-2.7-0.6-3.7-1s-1.9-0.7-2.6-1.2s-1.2-1-1.5-1.7c-0.3-0.6-0.5-1.5-0.5-2.5c0-1.3,0.2-2.4,0.7-3.3s1.2-1.7,2-2.3
		c0.9-0.6,1.8-1.1,3-1.4c1.1-0.3,2.3-0.5,3.6-0.5c2,0,3.7,0.3,5.3,1c1.5,0.7,2.7,1.5,3.5,2.6l-1.4,1.3c-0.8-1-1.9-1.7-3.3-2.2
		c-1.3-0.5-2.8-0.7-4.3-0.7c-0.9,0-1.8,0.1-2.7,0.3c-0.8,0.2-1.5,0.5-2.2,0.9c-0.6,0.4-1.1,1-1.5,1.6c-0.4,0.7-0.5,1.5-0.5,2.4
		c0,0.7,0.1,1.3,0.4,1.8c0.2,0.5,0.6,0.8,1.2,1.2c0.5,0.3,1.2,0.6,2.1,0.9c0.8,0.2,1.8,0.5,3,0.8c1.6,0.4,3,0.8,4.2,1.1
		s2.3,0.8,3.1,1.3c0.8,0.5,1.5,1.1,1.9,1.8c0.4,0.7,0.7,1.6,0.7,2.7c0,2.3-0.9,4.1-2.7,5.4C657,290.9,654.7,291.6,651.7,291.6z"/>
	<path class="st5" d="M714.2,265.8h2.4l-10.9,25.3h-2l-5.7-13.4l-5.7,13.4h-2l-10.9-25.3h2.4l9.7,22.6l5.3-12.5l-4.3-10.1h2.1
		l3.5,8.4l3.5-8.4h2.1l-4.3,10.1l5.3,12.5L714.2,265.8z"/>
	<path class="st5" d="M723.3,260.1v-4.5h2.4v4.5H723.3z M723.3,291.1v-25.3h2.4v25.3H723.3z"/>
	<path class="st5" d="M746.6,289.9c-0.1,0.1-0.3,0.2-0.7,0.4c-0.3,0.2-0.7,0.3-1.2,0.5c-0.5,0.2-1,0.3-1.6,0.4
		c-0.6,0.1-1.2,0.2-1.9,0.2c-0.7,0-1.3-0.1-1.9-0.3s-1.1-0.5-1.6-0.9c-0.5-0.4-0.8-0.9-1.1-1.4c-0.3-0.6-0.4-1.2-0.4-1.9v-19.1h-3.6
		v-2h3.6v-8.7h2.4v8.7h5.9v2h-5.9v18.5c0,0.9,0.3,1.6,1,2.1c0.6,0.5,1.4,0.7,2.2,0.7c1,0,1.9-0.2,2.6-0.5s1.2-0.6,1.3-0.7
		L746.6,289.9z"/>
	<path class="st5" d="M773.5,291.1h-2.4V277c0-6.3-2.1-9.4-6.3-9.4c-1,0-2.1,0.2-3,0.6c-1,0.4-1.9,0.9-2.8,1.7
		c-0.9,0.7-1.6,1.5-2.3,2.5c-0.6,1-1.1,2-1.5,3.1v15.7h-2.4v-35.5h2.4v16.2c1-2,2.5-3.5,4.3-4.7c1.8-1.2,3.8-1.8,5.9-1.8
		c1.4,0,2.6,0.3,3.6,0.8c1,0.5,1.8,1.3,2.5,2.2s1.2,2.1,1.5,3.5c0.3,1.4,0.5,2.9,0.5,4.6V291.1z"/>
	<path class="st5" d="M793.4,291.6c-1.8,0-3.4-0.3-4.9-1c-1.5-0.7-2.8-1.6-3.9-2.8c-1.1-1.2-2-2.6-2.6-4.2c-0.6-1.6-0.9-3.3-0.9-5
		c0-1.8,0.3-3.5,0.9-5.1c0.6-1.6,1.5-3,2.6-4.2c1.1-1.2,2.4-2.1,3.9-2.8c1.5-0.7,3.1-1,4.9-1s3.4,0.3,4.9,1c1.5,0.7,2.8,1.6,3.9,2.8
		c1.1,1.2,2,2.6,2.6,4.2c0.6,1.6,0.9,3.3,0.9,5.1c0,1.8-0.3,3.4-0.9,5c-0.6,1.6-1.5,3-2.6,4.2c-1.1,1.2-2.4,2.1-3.9,2.8
		C796.8,291.3,795.2,291.6,793.4,291.6z M783.5,278.6c0,1.5,0.3,2.9,0.8,4.2c0.5,1.3,1.2,2.5,2.1,3.4c0.9,1,1.9,1.7,3.1,2.3
		c1.2,0.6,2.5,0.9,3.8,0.9c1.4,0,2.6-0.3,3.8-0.9c1.2-0.6,2.3-1.4,3.2-2.4c0.9-1,1.6-2.2,2.1-3.5c0.5-1.3,0.8-2.7,0.8-4.3
		c0-1.5-0.3-2.9-0.8-4.2c-0.5-1.3-1.2-2.5-2.1-3.5c-0.9-1-2-1.8-3.1-2.4c-1.2-0.6-2.5-0.9-3.8-0.9c-1.4,0-2.6,0.3-3.8,0.9
		c-1.2,0.6-2.2,1.4-3.1,2.4c-0.9,1-1.6,2.2-2.1,3.5C783.8,275.7,783.5,277.1,783.5,278.6z"/>
	<path class="st5" d="M821.4,291.6c-5.4,0-8.1-3.7-8.1-11.2v-14.6h2.4v14.3c0,6.2,2.1,9.3,6.4,9.3c1.1,0,2.1-0.2,3.1-0.6
		c1-0.4,1.9-0.9,2.8-1.6c0.9-0.7,1.6-1.5,2.3-2.4c0.7-0.9,1.2-2,1.6-3.1v-16h2.4v21.9c0,0.8,0.3,1.2,1,1.2v2.2c-0.2,0-0.3,0-0.4,0
		c-0.1,0-0.2,0-0.3,0c-0.6,0-1.2-0.2-1.7-0.6c-0.5-0.4-0.8-0.9-0.8-1.6v-3.8c-1.1,2-2.6,3.6-4.5,4.8
		C825.7,291,823.6,291.6,821.4,291.6z"/>
	<path class="st5" d="M855.3,289.9c-0.1,0.1-0.3,0.2-0.7,0.4c-0.3,0.2-0.7,0.3-1.2,0.5c-0.5,0.2-1,0.3-1.6,0.4
		c-0.6,0.1-1.2,0.2-1.9,0.2c-0.7,0-1.3-0.1-1.9-0.3s-1.1-0.5-1.6-0.9c-0.5-0.4-0.8-0.9-1.1-1.4c-0.3-0.6-0.4-1.2-0.4-1.9v-19.1h-3.6
		v-2h3.6v-8.7h2.4v8.7h5.9v2h-5.9v18.5c0,0.9,0.3,1.6,1,2.1c0.6,0.5,1.4,0.7,2.2,0.7c1,0,1.9-0.2,2.6-0.5s1.2-0.6,1.3-0.7
		L855.3,289.9z"/>
	<path class="st5" d="M887.8,291.6c-2,0-3.8-0.5-5.5-1.6c-1.7-1-3.1-2.4-4-4v5.1H876v-35.5h2.4v15.7c1.2-1.8,2.6-3.2,4.3-4.3
		c1.6-1.1,3.5-1.7,5.7-1.7c1.8,0,3.4,0.4,4.8,1.1c1.4,0.8,2.7,1.8,3.6,3c1,1.2,1.8,2.7,2.3,4.2c0.5,1.6,0.8,3.2,0.8,4.8
		c0,1.8-0.3,3.4-0.9,5c-0.6,1.6-1.5,3-2.6,4.1c-1.1,1.2-2.4,2.1-3.8,2.8C891.1,291.3,889.5,291.6,887.8,291.6z M887.3,289.4
		c1.5,0,2.9-0.3,4.1-0.9c1.2-0.6,2.3-1.4,3.2-2.5c0.9-1,1.6-2.2,2.1-3.5c0.5-1.3,0.8-2.6,0.8-4c0-1.4-0.2-2.8-0.7-4.1
		s-1.1-2.5-2-3.5s-1.9-1.8-3.1-2.5c-1.2-0.6-2.5-0.9-3.9-0.9c-1.1,0-2.1,0.2-3,0.6c-0.9,0.4-1.8,0.9-2.6,1.5
		c-0.8,0.6-1.5,1.3-2.1,2.1c-0.6,0.8-1.2,1.7-1.6,2.5v8.4c0.1,0.9,0.5,1.8,1.1,2.7c0.6,0.8,1.4,1.5,2.2,2.1c0.9,0.6,1.8,1.1,2.8,1.4
		C885.5,289.2,886.5,289.4,887.3,289.4z"/>
	<path class="st5" d="M918.3,291.6c-1.8,0-3.4-0.3-4.9-1c-1.5-0.7-2.8-1.6-3.9-2.8c-1.1-1.2-2-2.6-2.6-4.2c-0.6-1.6-0.9-3.3-0.9-5
		c0-1.8,0.3-3.5,0.9-5.1c0.6-1.6,1.5-3,2.6-4.2c1.1-1.2,2.4-2.1,3.9-2.8c1.5-0.7,3.1-1,4.9-1s3.4,0.3,4.9,1c1.5,0.7,2.8,1.6,3.9,2.8
		c1.1,1.2,2,2.6,2.6,4.2c0.6,1.6,0.9,3.3,0.9,5.1c0,1.8-0.3,3.4-0.9,5c-0.6,1.6-1.5,3-2.6,4.2c-1.1,1.2-2.4,2.1-3.9,2.8
		C921.7,291.3,920.1,291.6,918.3,291.6z M908.4,278.6c0,1.5,0.3,2.9,0.8,4.2c0.5,1.3,1.2,2.5,2.1,3.4c0.9,1,1.9,1.7,3.1,2.3
		c1.2,0.6,2.5,0.9,3.8,0.9c1.4,0,2.6-0.3,3.8-0.9c1.2-0.6,2.3-1.4,3.2-2.4c0.9-1,1.6-2.2,2.1-3.5c0.5-1.3,0.8-2.7,0.8-4.3
		c0-1.5-0.3-2.9-0.8-4.2c-0.5-1.3-1.2-2.5-2.1-3.5c-0.9-1-2-1.8-3.1-2.4c-1.2-0.6-2.5-0.9-3.8-0.9c-1.4,0-2.6,0.3-3.8,0.9
		c-1.2,0.6-2.2,1.4-3.1,2.4c-0.9,1-1.6,2.2-2.1,3.5C908.7,275.7,908.4,277.1,908.4,278.6z"/>
	<path class="st5" d="M950.4,268c-2.3,0.1-4.3,0.7-6,2c-1.7,1.3-2.9,3-3.6,5.3v15.8h-2.4v-25.3h2.3v6.2c0.9-1.8,2-3.2,3.5-4.4
		c1.4-1.1,3-1.8,4.6-1.9c0.3,0,0.6,0,0.9,0s0.5,0,0.6,0V268z"/>
	<path class="st5" d="M966.1,291.6c-1.8,0-3.4-0.4-4.9-1.1c-1.5-0.7-2.8-1.7-3.9-2.9c-1.1-1.2-1.9-2.6-2.5-4.2
		c-0.6-1.6-0.9-3.2-0.9-4.9c0-1.8,0.3-3.4,0.9-5c0.6-1.6,1.4-3,2.4-4.2c1-1.2,2.3-2.2,3.7-2.9c1.4-0.7,3-1.1,4.6-1.1
		c1.1,0,2.1,0.2,3.1,0.5c1,0.3,1.9,0.8,2.7,1.3c0.8,0.5,1.6,1.2,2.3,1.9c0.7,0.7,1.3,1.5,1.8,2.3v-15.7h2.4v32.1
		c0,0.8,0.3,1.2,1,1.2v2.2c-0.2,0-0.4,0.1-0.5,0.1c-0.1,0-0.3,0-0.4,0c-0.6,0-1.2-0.3-1.7-0.8c-0.5-0.5-0.7-1-0.7-1.6v-2.8
		c-1,1.7-2.4,3-4.2,4C969.8,291.1,968,291.6,966.1,291.6z M966.6,289.4c0.9,0,1.8-0.2,2.8-0.5c1-0.4,1.9-0.9,2.8-1.5
		c0.9-0.6,1.6-1.4,2.2-2.2c0.6-0.8,1-1.7,1.1-2.6v-8.3c-0.4-0.9-0.9-1.8-1.5-2.6c-0.7-0.8-1.4-1.5-2.3-2.1c-0.8-0.6-1.8-1.1-2.7-1.4
		c-1-0.4-1.9-0.5-2.8-0.5c-1.5,0-2.8,0.3-4,0.9c-1.2,0.6-2.2,1.5-3.1,2.5c-0.8,1-1.5,2.2-1.9,3.5c-0.5,1.3-0.7,2.7-0.7,4.1
		c0,1.5,0.3,2.8,0.8,4.1c0.5,1.3,1.2,2.4,2.2,3.5s2,1.8,3.2,2.4C963.8,289.1,965.1,289.4,966.6,289.4z"/>
	<path class="st5" d="M998.3,291.6c-1.8,0-3.4-0.3-5-1c-1.5-0.7-2.8-1.7-4-2.9c-1.1-1.2-2-2.6-2.6-4.2s-0.9-3.3-0.9-5.1
		c0-1.8,0.3-3.5,0.9-5c0.6-1.6,1.5-3,2.6-4.1c1.1-1.2,2.4-2.1,3.9-2.8c1.5-0.7,3.1-1,4.9-1c1.8,0,3.4,0.3,5,1
		c1.5,0.7,2.8,1.6,3.9,2.8s2,2.6,2.6,4.1c0.6,1.6,0.9,3.2,0.9,5c0,0.2,0,0.4,0,0.6s0,0.4,0,0.5h-22.2c0.1,1.5,0.4,2.8,1,4.1
		c0.6,1.2,1.3,2.3,2.2,3.2c0.9,0.9,1.9,1.6,3.1,2.1c1.2,0.5,2.4,0.8,3.7,0.8c0.9,0,1.7-0.1,2.6-0.4c0.8-0.2,1.6-0.6,2.4-1
		c0.7-0.4,1.4-0.9,1.9-1.5c0.6-0.6,1-1.3,1.3-2l2.1,0.6c-0.4,0.9-0.9,1.7-1.6,2.5c-0.7,0.8-1.5,1.4-2.4,2c-0.9,0.6-1.9,1-3,1.3
		C1000.6,291.5,999.5,291.6,998.3,291.6z M1008.2,277.5c-0.1-1.5-0.4-2.9-1-4.1c-0.6-1.2-1.3-2.3-2.2-3.2c-0.9-0.9-1.9-1.6-3.1-2.1
		c-1.2-0.5-2.4-0.8-3.7-0.8c-1.3,0-2.6,0.3-3.7,0.8c-1.2,0.5-2.2,1.2-3.1,2.1c-0.9,0.9-1.6,2-2.1,3.2c-0.5,1.2-0.9,2.6-0.9,4.1
		H1008.2z"/>
	<path class="st5" d="M1029.8,268c-2.3,0.1-4.3,0.7-6,2c-1.7,1.3-2.9,3-3.6,5.3v15.8h-2.4v-25.3h2.3v6.2c0.9-1.8,2-3.2,3.5-4.4
		c1.4-1.1,3-1.8,4.6-1.9c0.3,0,0.6,0,0.9,0s0.5,0,0.6,0V268z"/>
	<path class="st5" d="M1044.4,291.6c-1.9,0-3.8-0.3-5.6-1s-3.3-1.6-4.7-2.9l1.2-1.7c1.4,1.2,2.8,2.1,4.2,2.7
		c1.5,0.6,3.1,0.9,4.8,0.9c2.2,0,4-0.5,5.3-1.4c1.3-0.9,2-2.2,2-3.9c0-0.8-0.2-1.4-0.5-2s-0.9-1-1.5-1.4c-0.7-0.4-1.5-0.7-2.5-1
		c-1-0.3-2.2-0.6-3.5-0.9c-1.4-0.3-2.7-0.6-3.7-1s-1.9-0.7-2.6-1.2s-1.2-1-1.5-1.7c-0.3-0.6-0.5-1.5-0.5-2.5c0-1.3,0.2-2.4,0.7-3.3
		s1.2-1.7,2-2.3c0.9-0.6,1.8-1.1,3-1.4c1.1-0.3,2.3-0.5,3.6-0.5c2,0,3.7,0.3,5.3,1c1.5,0.7,2.7,1.5,3.5,2.6l-1.4,1.3
		c-0.8-1-1.9-1.7-3.3-2.2c-1.3-0.5-2.8-0.7-4.3-0.7c-0.9,0-1.8,0.1-2.7,0.3c-0.8,0.2-1.5,0.5-2.2,0.9c-0.6,0.4-1.1,1-1.5,1.6
		c-0.4,0.7-0.5,1.5-0.5,2.4c0,0.7,0.1,1.3,0.4,1.8c0.2,0.5,0.6,0.8,1.2,1.2c0.5,0.3,1.2,0.6,2.1,0.9c0.8,0.2,1.8,0.5,3,0.8
		c1.6,0.4,3,0.8,4.2,1.1s2.3,0.8,3.1,1.3c0.8,0.5,1.5,1.1,1.9,1.8c0.4,0.7,0.7,1.6,0.7,2.7c0,2.3-0.9,4.1-2.7,5.4
		C1049.7,290.9,1047.4,291.6,1044.4,291.6z"/>
</g>
<g>
</g>
<g>
</g>
<g>
</g>
<g>
</g>
<g>
</g>
<g>
</g>
</svg>
